<svg xmlns="http://www.w3.org/2000/svg" xmlns:xlink="http://www.w3.org/1999/xlink" version="1.1" id="Layer_1" x="0px" y="0px" enable-background="new 0 0 1024 1024" xml:space="preserve" viewBox="178.74 389.65 669.71 213.05"><path fill="#000000" opacity="1.000000" stroke="none" d=" M365.304138,583.679993   C344.952454,562.774658 324.824585,542.144226 304.762238,521.450256   C302.633484,519.254395 300.364014,518.209167 297.268982,518.345886   C292.638763,518.550476 287.992828,518.399048 283.094452,518.399048   C281.483276,509.733063 282.030212,501.475769 282.553925,493.214203   C282.681915,491.194580 283.916962,490.785919 285.596161,490.789398   C294.093689,490.806915 302.591400,490.843292 311.088684,490.801025   C313.569305,490.788696 315.001221,492.343994 316.509399,493.922974   C326.865692,504.765320 337.222107,515.607666 347.609131,526.420532   C349.857788,528.761292 351.994263,531.272949 354.895111,532.931335   C356.195648,531.264709 355.731354,529.717590 355.732727,528.288635   C355.766083,493.298035 355.678406,458.306946 355.869476,423.317352   C355.895844,418.490173 354.458710,417.075348 349.657867,417.092499   C304.337219,417.254425 259.015808,417.189362 213.694595,417.209869   C207.125900,417.212830 207.133469,417.261810 207.133560,423.917419   C207.134155,467.405792 207.132019,510.894135 207.128647,554.382507   C207.128052,561.926086 207.123413,561.929504 214.880081,561.929260   C250.537201,561.928162 286.194672,562.000366 321.850983,561.829346   C326.423828,561.807434 329.695862,563.191956 332.769379,566.476318   C339.568634,573.741943 346.663788,580.730774 353.589294,587.782593   C352.163605,590.072266 350.328278,589.318970 348.805908,589.319824   C294.320435,589.349915 239.834747,589.282410 185.349625,589.426575   C180.458908,589.439514 178.722763,588.274475 178.736984,583.053833   C178.906311,520.904297 178.838089,458.754059 178.847519,396.604034   C178.848572,389.672638 178.892410,389.652710 185.667587,389.652374   C249.483963,389.649353 313.300354,389.651520 377.116730,389.658875   C384.005585,389.659668 384.055206,389.679291 384.057434,396.616547   C384.073944,448.102692 384.307709,499.590820 383.869965,551.073242   C383.782349,561.376953 386.353424,569.354675 393.972382,576.312134   C400.442627,582.220764 400.062897,582.613892 393.943237,588.943665   C390.933655,592.056580 387.833252,595.098328 385.037109,598.395447   C382.937714,600.871033 381.385803,600.529968 379.377838,598.371948   C374.838806,593.493835 370.165558,588.740540 365.304138,583.679993  z"></path><path fill="#000000" opacity="1.000000" stroke="none" d=" M532.499146,448.810120   C536.448730,464.500946 534.250488,478.940857 526.061035,492.332428   C524.187195,495.396606 524.387390,497.089752 526.959290,499.479919   C534.739502,506.710114 534.644531,506.812286 527.854370,514.661621   C519.667236,524.125854 519.589417,524.205627 510.631927,515.468811   C508.257385,513.152710 506.519470,512.770508 503.344055,514.266785   C469.904572,530.023071 427.280945,511.956757 421.106934,472.155853   C415.043427,433.067078 443.898682,407.280487 474.469604,406.426361   C503.539917,405.614166 526.828430,425.290924 532.499146,448.810120  M447.604492,475.768158   C454.621460,493.691315 476.056183,501.360748 487.089142,494.085327   C484.249207,491.437439 481.474548,488.858093 478.709320,486.268616   C477.448242,485.087677 476.171753,483.866943 477.835144,482.095734   C482.247528,477.397491 486.122131,472.173767 491.395874,467.795715   C495.755859,471.661285 499.932648,475.364441 504.479828,479.395996   C509.491241,471.983063 510.433594,464.375824 508.644073,456.313782   C505.770660,443.368622 497.918884,434.500824 485.377045,430.665985   C472.903625,426.852081 461.919220,430.599426 453.494629,440.422974   C444.767822,450.598816 443.256500,462.399292 447.604492,475.768158  z"></path><path fill="#000000" opacity="1.000000" stroke="none" d=" M600.662842,519.488159   C574.352905,518.366211 552.495605,498.107422 548.566711,471.563751   C544.228760,442.257172 560.807556,416.000793 588.925415,408.453094   C621.905273,399.600372 654.399475,418.163269 661.867798,451.151489   C669.364502,484.264984 645.897400,516.543213 611.988708,519.414001   C608.355164,519.721619 604.748230,520.698242 600.662842,519.488159  M589.139282,492.385437   C596.289185,496.865875 604.139221,497.929077 612.144592,496.040100   C629.972656,491.833405 640.586243,475.278046 637.529175,457.085846   C634.462524,438.837097 615.745850,425.718231 598.669006,429.848114   C585.530151,433.025574 575.246155,443.526703 573.537903,456.529633   C571.624207,471.096130 575.529114,483.552368 589.139282,492.385437  z"></path><path fill="#000000" opacity="1.000000" stroke="none" d=" M728.000000,477.316071   C721.500671,477.316315 715.495850,477.469788 709.503723,477.261078   C705.646790,477.126770 704.162598,478.489380 704.241211,482.452576   C704.439514,492.447540 704.209961,502.450470 704.344421,512.447571   C704.392212,516.001282 703.283875,517.605774 699.482239,517.443176   C693.993225,517.208374 688.482361,517.278992 682.988098,517.452576   C679.931152,517.549194 678.901367,516.371094 678.908875,513.367310   C678.992493,480.037720 679.007629,446.707886 678.976746,413.378174   C678.973694,410.114227 679.956055,408.584656 683.562927,408.603699   C705.893433,408.721710 728.225281,408.723938 750.555664,408.600525   C754.289795,408.579895 755.581726,409.930817 755.394897,413.566162   C755.172729,417.887634 755.155762,422.239716 755.397888,426.559021   C755.609680,430.336609 754.060059,431.415558 750.443542,431.373260   C736.946716,431.215332 723.444092,431.465118 709.949890,431.220184   C705.589355,431.141022 703.930542,432.427429 704.239746,436.877899   C704.573914,441.687714 704.457947,446.543640 704.274414,451.369446   C704.147766,454.700012 705.552734,455.697632 708.720032,455.668549   C720.884460,455.556824 733.056152,455.845062 745.213257,455.528961   C750.143555,455.400726 751.789490,457.114685 751.315308,461.833649   C751.016907,464.803070 751.282715,467.827515 751.263794,470.827057   C751.222961,477.300262 751.214600,477.306702 744.498657,477.317932   C739.165771,477.326843 733.832886,477.317230 728.000000,477.316071  z"></path><path fill="#000000" opacity="1.000000" stroke="none" d=" M797.335083,497.000671   C797.329468,502.661285 797.219971,507.824890 797.355713,512.982056   C797.438354,516.121033 796.340332,517.509155 793.041565,517.430908   C786.413208,517.273804 779.778503,517.384216 773.206848,517.384216   C771.688110,514.308350 772.676697,511.454590 772.668396,508.712769   C772.573914,477.414795 772.687744,446.115845 772.483276,414.818909   C772.453064,410.189453 773.420044,408.478729 778.432495,408.542664   C799.738708,408.814392 821.051270,408.756256 842.359436,408.576111   C846.773926,408.538788 848.833252,409.645752 848.388367,414.413208   C848.034180,418.209473 848.102173,422.079285 848.366272,425.889862   C848.649475,429.976410 847.167664,431.452911 842.993591,431.389404   C829.678101,431.186890 816.355164,431.454529 803.040466,431.226807   C798.801575,431.154358 796.911072,432.219208 797.261658,436.785889   C797.617432,441.420349 797.529114,446.112152 797.292908,450.761444   C797.106140,454.438904 798.406860,455.753784 802.144043,455.696869   C813.961609,455.516846 825.789062,455.836426 837.601074,455.523468   C842.347717,455.397705 843.760132,457.129913 843.405334,461.563843   C843.114136,465.203278 843.163879,468.895447 843.390808,472.543823   C843.625671,476.320190 842.002625,477.414429 838.410034,477.368530   C826.591736,477.217682 814.767090,477.481476 802.951782,477.242523   C798.535583,477.153198 796.988586,478.679626 797.273804,483.020172   C797.567871,487.495789 797.336182,492.005951 797.335083,497.000671  z"></path><path fill="#000000" opacity="1.000000" stroke="none" d=" M531.612915,550.037964   C537.910889,550.525146 535.652771,554.997803 535.859680,558.055237   C536.094360,561.522278 533.394287,561.354492 531.000000,561.348450   C525.674011,561.335022 520.343262,561.479309 515.023743,561.292664   C511.278534,561.161316 509.150269,561.875122 509.178101,566.411011   C509.208069,571.296631 512.241394,570.636047 515.210449,570.640076   C519.704285,570.646118 524.227783,570.961853 528.684082,570.552063   C533.831726,570.078796 533.227417,573.257568 533.327881,576.511963   C533.430237,579.829285 533.004028,581.887695 528.789734,581.544067   C523.828735,581.139404 518.807068,581.546082 513.819641,581.372803   C510.271973,581.249573 509.209320,582.856750 509.222351,586.191345   C509.235046,589.446411 510.107758,591.171570 513.735779,591.070923   C519.722717,590.904724 525.723206,591.198120 531.707825,590.995911   C536.591736,590.830933 536.279175,593.908997 536.372681,597.248108   C536.467712,600.642639 535.785461,602.488281 531.761475,602.398010   C521.613953,602.170471 511.456512,602.227600 501.305908,602.372864   C497.844604,602.422363 496.621643,601.136841 496.650177,597.702698   C496.768951,583.390076 496.792206,569.075012 496.642548,554.762939   C496.602905,550.972107 498.159760,549.845520 501.695587,549.900513   C511.513336,550.053284 521.334351,549.996399 531.612915,550.037964  z"></path><path fill="#000000" opacity="1.000000" stroke="none" d=" M630.648682,565.004822   C630.659546,560.845703 630.712341,557.185242 630.667480,553.525879   C630.636658,551.014648 631.803223,550.096191 634.283386,549.893860   C642.671997,549.209412 643.114380,549.532837 643.074890,557.845093   C643.014038,570.659241 643.014099,570.659302 655.951721,570.647583   C656.617188,570.646973 657.282715,570.646729 657.948181,570.643860   C664.610596,570.614685 664.614258,570.614502 664.645996,564.035034   C664.662048,560.707764 664.787415,557.374756 664.639709,554.054321   C664.422119,549.161743 667.909546,550.020996 670.789429,549.924133   C673.720520,549.825439 676.437073,549.671326 676.390564,554.077759   C676.234436,568.882935 676.249023,583.691284 676.356750,598.497192   C676.390625,603.157043 673.203064,602.320679 670.521606,602.290710   C667.876709,602.261169 664.501526,603.205750 664.644043,598.525330   C664.770569,594.370361 664.572205,590.205933 664.671936,586.049438   C664.737976,583.294983 663.590271,582.105164 660.836487,582.149902   C656.179565,582.225586 651.519958,582.203918 646.862427,582.146484   C644.097534,582.112366 642.987366,583.442322 643.030334,586.125305   C643.094299,590.116577 642.973328,594.110718 643.034851,598.102112   C643.121033,603.698181 638.977722,602.073730 635.945312,602.315002   C632.804749,602.564880 630.510864,602.153748 630.591125,597.944641   C630.797058,587.134644 630.653076,576.317932 630.648682,565.004822  z"></path><path fill="#000000" opacity="1.000000" stroke="none" d=" M571.802002,599.486389   C556.401062,591.387329 555.234680,570.647583 563.757080,559.316162   C572.213013,548.073181 591.988708,546.026245 602.769592,555.555298   C604.369080,556.969055 607.993530,558.579712 604.852295,561.331848   C602.412476,563.469360 600.573730,568.542419 595.568481,564.584961   C589.896729,560.100586 583.582703,559.739319 577.403137,563.405945   C570.920471,567.252441 570.613525,573.754761 571.480530,580.211609   C572.847473,590.391113 585.385498,594.678284 594.722839,588.422974   C596.484131,587.243103 597.779602,584.893127 600.771851,586.604858   C607.062073,590.203247 607.546082,592.598816 601.824341,597.081604   C592.574707,604.328308 582.485229,603.938416 571.802002,599.486389  z"></path><path fill="#000000" opacity="1.000000" stroke="none" d=" M456.996521,549.884277   C461.492828,549.901855 465.490753,549.970886 469.487152,549.919434   C474.090424,549.860168 473.177948,553.215332 473.241821,555.910217   C473.305664,558.602234 473.573669,561.222412 469.431274,561.415894   C465.771118,561.586975 461.101898,559.440247 458.662109,562.899353   C456.646606,565.756958 458.077698,570.029968 458.020874,573.670227   C457.898651,581.496643 457.724457,589.334778 458.025024,597.150696   C458.213715,602.057312 455.672821,602.493286 451.828369,602.396179   C448.229279,602.305176 445.386047,602.431152 445.554504,597.300903   C445.887756,587.151855 445.435913,576.977539 445.740753,566.826660   C445.876892,562.294556 444.243195,560.770630 439.968842,561.316467   C438.494171,561.504822 436.955872,561.188110 435.479126,561.368225   C430.950806,561.920410 429.833069,559.727295 429.782013,555.549622   C429.729279,551.234680 431.051544,549.594971 435.514984,549.800476   C442.495605,550.121887 449.502014,549.883667 456.996521,549.884277  z"></path></svg>
